<svg enable-background="new 0 0 400 400" viewBox="0 0 400 400" xmlns="http://www.w3.org/2000/svg"><g fill="currentColor"><path d="m387.9 74.1c4.5 0 8.2 3.7 8.2 8.2v41.9c0 42.1-46.2 91.3-109.2 100.6-20 41.2-50 61.3-75.6 65.8v66.2h58.4c9.8 0 17.7 7.9 17.7 17.7 0 2.2-1.8 4-4.1 4h-165.8c-2.2 0-4.1-1.8-4.1-4 0-9.8 7.9-17.7 17.7-17.7h58.4v-66.2c-25.5-4.5-55.6-24.6-75.6-65.8-62.9-9.4-109.2-58.6-109.2-100.7v-41.9c0-4.5 3.7-8.2 8.2-8.2h78.8v-35.3c0-4.5 3.7-8.2 8.2-8.2h201.1c4.5 0 8.2 3.7 8.2 8.2v35.3h78.7zm-283.6 126.5c-7.8-24-12.6-53.3-12.6-88.5v-16.3h-65.2v28.3c0 27.4 31.1 64.4 77.8 76.5zm183-88.5v-59.8h-173.9v59.8c0 87 38 157.6 87 157.6 48.9 0 86.9-70.6 86.9-157.6zm87-16.3h-65.2v16.3c0 35.2-4.8 64.5-12.6 88.5 46.5-12 77.8-49.1 77.8-76.5z"/><path d="m190 92h25v124h-25z"/><path d="m176 92h39v22h-39z"/></g></svg>
